# Blender 4.0.2
# www.blender.org
o AntennaHat
v -0.554004 4.415607 -0.440734
v -0.525262 4.525797 -0.126832
v -0.274030 4.568828 -0.342548
v -0.693572 5.504096 -0.946488
v -0.420501 5.025697 -0.520392
v -0.589678 4.925824 -0.554447
v -0.578761 5.054584 -0.402601
v -0.767616 5.665225 -1.417717
v -1.142957 5.676694 -1.090975
v -0.766967 5.980036 -1.048864
v 0.554004 4.415607 -0.440734
v 0.525262 4.525797 -0.126832
v 0.274030 4.568828 -0.342548
v 0.693572 5.504096 -0.946488
v 0.420501 5.025697 -0.520392
v 0.589678 4.925824 -0.554447
v 0.578761 5.054584 -0.402601
v 0.767616 5.665225 -1.417717
v 1.142957 5.676694 -1.090975
v 0.766967 5.980036 -1.048864
vn 0.4257 -0.4541 -0.7827
vn 0.4951 0.7182 0.4890
vn -0.9867 -0.0820 0.1405
vn -0.9932 -0.0456 0.1070
vn 0.5444 0.4305 0.7199
vn 0.4082 -0.1713 -0.8967
vn 0.9855 0.1281 -0.1111
vn -0.2668 -0.9240 -0.2740
vn -0.2426 0.1681 0.9554
vn -0.4761 0.6693 -0.5704
vn -0.4257 -0.4541 -0.7827
vn -0.4951 0.7182 0.4890
vn 0.9867 -0.0820 0.1405
vn 0.9931 -0.0438 0.1086
vn -0.5846 0.4502 0.6750
vn -0.4082 -0.1713 -0.8967
vn -0.9855 0.1281 -0.1111
vn 0.2668 -0.9240 -0.2740
vn 0.2426 0.1681 0.9554
vn 0.4761 0.6693 -0.5704
vn -0.9931 -0.0438 0.1086
vn 0.5846 0.4502 0.6750
vn 0.3301 -0.2486 -0.9106
vn 0.9932 -0.0456 0.1070
vn -0.5444 0.4305 0.7199
vn -0.3301 -0.2486 -0.9106
vt 0.000000 0.000000
vt 0.250000 0.490000
vt 0.250000 0.250000
vt 0.457846 0.130000
vt 0.750000 0.490000
vt 0.957846 0.130000
vt 0.542154 0.130000
vt 0.042154 0.130000
s 0
f 6/1/1 4/1/1 5/1/1
f 5/1/2 4/1/2 7/1/2
f 7/1/3 4/1/3 6/1/3
f 2/1/4 6/1/4 1/1/4
f 3/1/5 7/1/5 2/1/5
f 6/1/6 3/1/6 1/1/6
f 8/2/7 10/3/7 4/4/7
f 8/5/8 4/6/8 9/7/8
f 4/4/9 10/3/9 9/8/9
f 9/8/10 10/3/10 8/2/10
f 16/1/11 15/1/11 14/1/11
f 15/1/12 17/1/12 14/1/12
f 17/1/13 16/1/13 14/1/13
f 12/1/14 16/1/14 17/1/14
f 13/1/15 17/1/15 15/1/15
f 13/1/16 16/1/16 11/1/16
f 18/2/17 14/4/17 20/3/17
f 18/5/18 19/7/18 14/6/18
f 14/4/19 19/8/19 20/3/19
f 19/8/20 18/2/20 20/3/20
f 2/1/21 7/1/21 6/1/21
f 3/1/22 5/1/22 7/1/22
f 6/1/23 5/1/23 3/1/23
f 12/1/24 11/1/24 16/1/24
f 13/1/25 12/1/25 17/1/25
f 13/1/26 15/1/26 16/1/26
