# Blender 4.0.2
# www.blender.org
o Remeshed.002
v 0.000000 3.874173 -0.933401
v -0.448829 3.874129 -0.809414
v -0.780047 3.874173 -0.479827
v 0.000000 4.247640 -0.859947
v -0.417097 4.247366 -0.750134
v -0.724972 4.247640 -0.453902
v 0.000000 4.543577 -0.675959
v -0.315818 4.541618 -0.592625
v -0.548551 4.543577 -0.375129
v 0.000000 3.487242 -0.879308
v -0.421795 3.487509 -0.750307
v -0.733189 3.487008 -0.409055
v 0.000000 3.160332 -0.619473
v -0.308437 3.156941 -0.532877
v -0.538550 3.178448 -0.255313
v 0.448829 3.874129 -0.809414
v 0.780047 3.874173 -0.479827
v 0.417097 4.247366 -0.750134
v 0.724972 4.247640 -0.453902
v 0.315818 4.541618 -0.592625
v 0.548551 4.543577 -0.375129
v 0.421795 3.487509 -0.750307
v 0.733189 3.487008 -0.409055
v 0.308437 3.156941 -0.532877
v 0.538550 3.178448 -0.255313
vn -0.6584 0.3290 -0.6770
vn -0.5006 0.0090 -0.8656
vn -0.7147 -0.0222 -0.6990
vn -0.0000 0.3546 -0.9350
vn -0.0000 0.0269 -0.9996
vn -0.4029 0.5351 -0.7425
vn -0.0000 0.5280 -0.8493
vn -0.4590 0.3518 -0.8158
vn -0.5857 0.5235 -0.6188
vn -0.4842 -0.3854 -0.7855
vn -0.6843 -0.4133 -0.6008
vn -0.0000 -0.3844 -0.9232
vn -0.4304 -0.6101 -0.6652
vn -0.6232 -0.6264 -0.4682
vn -0.0000 -0.6119 -0.7909
vn 0.5006 0.0090 -0.8656
vn 0.6584 0.3290 -0.6770
vn 0.7147 -0.0222 -0.6990
vn 0.4590 0.3518 -0.8158
vn 0.4029 0.5351 -0.7425
vn 0.5857 0.5235 -0.6188
vn 0.4842 -0.3854 -0.7855
vn 0.6843 -0.4133 -0.6008
vn 0.4304 -0.6101 -0.6652
vn 0.6232 -0.6264 -0.4682
vt 1.000000 0.750000
vt 0.750000 0.500000
vt 1.000000 0.500000
vt 0.500000 0.750000
vt 0.500000 0.500000
vt 0.750000 1.000000
vt 0.500000 1.000000
vt 0.750000 0.750000
vt 1.000000 1.000000
vt 0.750000 0.250000
vt 1.000000 0.250000
vt 0.500000 0.250000
vt 0.750000 0.000000
vt 1.000000 0.000000
vt 0.500000 0.000000
vt 0.250000 0.500000
vt 0.000000 0.750000
vt 0.000000 0.500000
vt 0.250000 0.750000
vt 0.250000 1.000000
vt 0.000000 1.000000
vt 0.250000 0.250000
vt 0.000000 0.250000
vt 0.250000 0.000000
vt 0.000000 0.000000
s 1
f 6/1/1 2/2/2 3/3/3
f 2/2/2 4/4/4 1/5/5
f 4/4/4 8/6/6 7/7/7
f 5/8/8 9/9/9 8/6/6
f 3/3/3 11/10/10 12/11/11
f 2/2/2 10/12/12 11/10/10
f 12/11/11 14/13/13 15/14/14
f 11/10/10 13/15/15 14/13/13
f 16/16/16 19/17/17 17/18/18
f 16/16/16 4/4/4 18/19/19
f 4/4/4 20/20/20 18/19/19
f 18/19/19 21/21/21 19/17/17
f 17/18/18 22/22/22 16/16/16
f 16/16/16 10/12/12 1/5/5
f 23/23/23 24/24/24 22/22/22
f 22/22/22 13/15/15 10/12/12
f 6/1/1 5/8/8 2/2/2
f 2/2/2 5/8/8 4/4/4
f 4/4/4 5/8/8 8/6/6
f 5/8/8 6/1/1 9/9/9
f 3/3/3 2/2/2 11/10/10
f 2/2/2 1/5/5 10/12/12
f 12/11/11 11/10/10 14/13/13
f 11/10/10 10/12/12 13/15/15
f 16/16/16 18/19/19 19/17/17
f 16/16/16 1/5/5 4/4/4
f 4/4/4 7/7/7 20/20/20
f 18/19/19 20/20/20 21/21/21
f 17/18/18 23/23/23 22/22/22
f 16/16/16 22/22/22 10/12/12
f 23/23/23 25/25/25 24/24/24
f 22/22/22 24/24/24 13/15/15
