# Blender 4.0.2
# www.blender.org
o pants
v -0.164024 1.485884 0.246003
v -0.539654 1.491348 -0.288658
v -0.282853 1.400948 -0.257513
v -0.399313 1.528685 0.401307
v -0.190195 1.428973 0.251372
v -0.615854 0.262130 -0.220886
v -0.398641 0.228854 -0.222012
v -0.778284 0.246143 -0.075208
v -0.787355 0.190164 0.126365
v -0.634762 0.125164 0.266071
v -0.436348 0.088983 0.268120
v -0.270513 0.172680 -0.093350
v -0.270642 0.121409 0.087511
v -0.621280 0.823836 0.284142
v -0.414406 0.793492 0.306903
v -0.570306 0.842607 -0.226704
v -0.735994 0.862772 -0.099171
v -0.248463 0.777530 0.177586
v -0.224718 0.782695 -0.042086
v -0.757943 0.854219 0.119414
v -0.362464 0.809427 -0.205653
v -0.412301 1.146709 0.353618
v -0.773626 1.206221 -0.116755
v -0.182889 1.066503 -0.041350
v -0.649925 1.202255 0.323615
v -0.581501 1.150462 -0.258371
v -0.215875 1.091385 0.204675
v -0.805438 1.228943 0.128606
v -0.340017 1.093027 -0.230658
v -0.632407 0.503399 0.243749
v -0.565262 0.574387 -0.211176
v -0.268254 0.488669 0.159775
v -0.750400 0.540854 0.101123
v -0.363088 0.553658 -0.190294
v -0.437162 0.480241 0.266131
v -0.725130 0.566440 -0.091471
v -0.237097 0.517495 -0.035398
v -0.286531 1.888437 -0.444360
v 0.000000 1.878336 -0.473888
v -0.275359 1.544208 -0.359526
v 0.000000 1.497342 -0.342878
v -0.507009 1.923793 -0.352527
v -0.554657 1.606643 -0.319907
v -0.138698 1.409994 -0.046177
v 0.000000 1.410279 -0.080188
v 0.000000 1.481755 0.230634
v -0.279333 1.678966 0.433838
v 0.000000 1.635587 0.405893
v -0.693209 1.967756 -0.204503
v -0.739836 1.742848 -0.174655
v -0.734799 2.017523 0.053573
v -0.782407 1.822344 0.076521
v -0.516203 1.999096 0.356108
v -0.605974 1.796184 0.351832
v -0.239246 1.978643 0.461846
v 0.000000 1.965333 0.486033
v -0.754927 1.570667 -0.154570
v -0.801684 1.613650 0.105526
v -0.666186 1.589762 0.330821
v -0.149341 1.379360 -0.046548
v -0.615854 0.262130 -0.220886
v -0.398641 0.228854 -0.222012
v -0.778284 0.246143 -0.075208
v -0.787355 0.190164 0.126365
v -0.634762 0.125164 0.266071
v -0.436348 0.088983 0.268120
v -0.270513 0.172680 -0.093350
v -0.270642 0.121409 0.087511
v -0.286531 1.888437 -0.444360
v 0.000000 1.878336 -0.473888
v -0.507009 1.923793 -0.352527
v -0.693209 1.967756 -0.204503
v -0.734799 2.017523 0.053573
v -0.516203 1.999096 0.356108
v -0.239246 1.978643 0.461846
v 0.000000 1.965333 0.486033
v 0.000000 1.841414 -0.015116
v -0.527328 0.302494 0.042207
v 0.164024 1.485884 0.246003
v 0.539654 1.491348 -0.288658
v 0.282853 1.400948 -0.257513
v 0.399313 1.528685 0.401307
v 0.190195 1.428973 0.251372
v 0.615854 0.262130 -0.220886
v 0.398641 0.228854 -0.222012
v 0.778284 0.246143 -0.075208
v 0.787355 0.190164 0.126365
v 0.634762 0.125164 0.266071
v 0.436348 0.088983 0.268120
v 0.270513 0.172680 -0.093350
v 0.270642 0.121409 0.087511
v 0.621280 0.823836 0.284142
v 0.414406 0.793492 0.306903
v 0.570306 0.842607 -0.226704
v 0.735994 0.862772 -0.099171
v 0.248463 0.777530 0.177586
v 0.224718 0.782695 -0.042086
v 0.757943 0.854219 0.119414
v 0.362464 0.809427 -0.205653
v 0.412301 1.146709 0.353618
v 0.773626 1.206221 -0.116755
v 0.182889 1.066503 -0.041350
v 0.649925 1.202255 0.323615
v 0.581501 1.150462 -0.258371
v 0.215875 1.091385 0.204675
v 0.805438 1.228943 0.128606
v 0.340017 1.093027 -0.230658
v 0.632407 0.503399 0.243749
v 0.565262 0.574387 -0.211176
v 0.268254 0.488669 0.159775
v 0.750400 0.540854 0.101123
v 0.363088 0.553658 -0.190294
v 0.437162 0.480241 0.266131
v 0.725130 0.566440 -0.091471
v 0.237097 0.517495 -0.035398
v 0.286531 1.888437 -0.444360
v 0.275359 1.544208 -0.359526
v 0.507009 1.923793 -0.352527
v 0.554657 1.606643 -0.319907
v 0.138698 1.409994 -0.046177
v 0.279333 1.678966 0.433838
v 0.693209 1.967756 -0.204503
v 0.739836 1.742848 -0.174655
v 0.734799 2.017523 0.053573
v 0.782407 1.822344 0.076521
v 0.516203 1.999096 0.356108
v 0.605974 1.796184 0.351832
v 0.239246 1.978643 0.461846
v 0.754927 1.570667 -0.154570
v 0.801684 1.613650 0.105526
v 0.666186 1.589762 0.330821
v 0.149341 1.379360 -0.046548
v 0.615854 0.262130 -0.220886
v 0.398641 0.228854 -0.222012
v 0.778284 0.246143 -0.075208
v 0.787355 0.190164 0.126365
v 0.634762 0.125164 0.266071
v 0.436348 0.088983 0.268120
v 0.270513 0.172680 -0.093350
v 0.270642 0.121409 0.087511
v 0.286531 1.888437 -0.444360
v 0.507009 1.923793 -0.352527
v 0.693209 1.967756 -0.204503
v 0.734799 2.017523 0.053573
v 0.516203 1.999096 0.356108
v 0.239246 1.978643 0.461846
v 0.527328 0.302494 0.042207
vn 0.7827 -0.2150 0.5841
vn 0.5377 -0.8323 -0.1346
vn 0.3901 -0.6793 0.6216
vn 0.2569 -0.0760 0.9634
vn -0.3142 0.0340 0.9487
vn 0.4049 0.0055 0.9144
vn -0.8642 0.0471 -0.5010
vn -0.3632 0.0665 -0.9293
vn -0.9270 0.1092 -0.3589
vn 0.8304 -0.1159 0.5450
vn 0.9452 -0.0000 -0.3264
vn 0.9645 -0.0644 -0.2560
vn -0.4755 -0.0007 0.8797
vn -0.8811 0.0910 0.4641
vn -0.9578 0.0520 0.2826
vn -0.2605 0.0145 -0.9654
vn 0.4437 0.0398 -0.8953
vn 0.9126 -0.0298 0.4079
vn 0.4895 -0.0129 -0.8719
vn 0.9538 -0.1196 -0.2757
vn 0.4512 -0.0834 -0.8885
vn 0.4576 -0.1232 -0.8806
vn 0.8514 -0.1296 0.5083
vn 0.2604 -0.1388 0.9555
vn 0.8575 -0.1214 0.5000
vn -0.2794 -0.0821 -0.9567
vn -0.2923 -0.0830 -0.9527
vn -0.8690 -0.0550 -0.4917
vn -0.9545 -0.0895 0.2846
vn -0.9653 -0.0569 0.2547
vn -0.5114 -0.0958 0.8540
vn -0.4765 -0.1132 0.8718
vn 0.9488 -0.0934 -0.3018
vn -0.8708 -0.0838 -0.4844
vn 0.2224 -0.1327 0.9659
vn 0.0624 -0.1605 0.9851
vn -0.3209 -0.2191 -0.9214
vn -0.8510 -0.0234 -0.5247
vn 0.9485 -0.2255 -0.2226
vn -0.6155 0.0466 0.7868
vn -0.9782 0.0767 0.1928
vn 0.4955 -0.3492 -0.7953
vn -0.0000 -0.2777 -0.9607
vn -0.0282 -0.4993 -0.8659
vn -0.2095 -0.1851 -0.9601
vn -0.4426 -0.1705 -0.8804
vn -0.5058 -0.0099 -0.8626
vn -0.0000 -0.7336 -0.6796
vn -0.0000 -0.8919 0.4522
vn -0.0000 -0.5293 0.8484
vn -0.0464 -0.2664 0.9627
vn -0.8537 0.0593 -0.5173
vn -0.8392 0.1117 -0.5322
vn -0.9660 0.1853 0.1804
vn -0.9433 0.2678 0.1962
vn -0.5632 0.1493 0.8127
vn -0.5099 0.1589 0.8455
vn -0.2267 -0.0605 0.9721
vn -0.0000 -0.1543 0.9880
vn 0.1949 0.9706 -0.1413
vn 0.1196 0.9684 -0.2186
vn -0.0000 0.9958 -0.0915
vn -0.0000 0.9968 0.0802
vn 0.1155 0.9928 0.0317
vn 0.1810 0.9830 -0.0321
vn 0.2078 0.9717 -0.1125
vn 0.2197 0.9670 -0.1291
vn -0.0000 0.9708 -0.2400
vn -0.4909 -0.8653 -0.1015
vn -0.4882 -0.7866 -0.3781
vn -0.1215 -0.9586 -0.2575
vn -0.2816 -0.7514 -0.5968
vn 0.0093 -0.7860 -0.6181
vn 0.2445 -0.8766 -0.4145
vn 0.2551 -0.9634 -0.0828
vn 0.0086 -0.9888 0.1488
vn -0.3096 -0.9442 0.1124
vn -0.5377 -0.8323 -0.1346
vn -0.7827 -0.2150 0.5841
vn -0.3901 -0.6793 0.6216
vn -0.2569 -0.0760 0.9634
vn 0.3142 0.0340 0.9487
vn 0.4755 -0.0007 0.8797
vn 0.8642 0.0471 -0.5010
vn 0.3632 0.0665 -0.9293
vn 0.2605 0.0145 -0.9654
vn -0.9452 -0.0000 -0.3264
vn -0.8304 -0.1159 0.5450
vn -0.9645 -0.0644 -0.2560
vn 0.8811 0.0910 0.4641
vn 0.9578 0.0520 0.2826
vn 0.9270 0.1092 -0.3589
vn -0.4437 0.0398 -0.8953
vn -0.4895 -0.0129 -0.8719
vn -0.9126 -0.0298 0.4079
vn -0.4512 -0.0834 -0.8885
vn -0.9538 -0.1196 -0.2757
vn -0.4576 -0.1232 -0.8806
vn -0.8514 -0.1296 0.5083
vn -0.2604 -0.1388 0.9555
vn -0.2224 -0.1327 0.9659
vn 0.2794 -0.0821 -0.9567
vn 0.2923 -0.0830 -0.9527
vn 0.9545 -0.0895 0.2846
vn 0.8690 -0.0550 -0.4917
vn 0.9653 -0.0569 0.2547
vn 0.5114 -0.0958 0.8540
vn -0.8575 -0.1214 0.5000
vn 0.8708 -0.0838 -0.4844
vn 0.4765 -0.1132 0.8718
vn -0.0624 -0.1605 0.9851
vn 0.6155 0.0466 0.7868
vn 0.3209 -0.2191 -0.9214
vn 0.8510 -0.0234 -0.5247
vn -0.9485 -0.2255 -0.2226
vn 0.9782 0.0767 0.1928
vn -0.4955 -0.3492 -0.7953
vn -0.9488 -0.0934 -0.3018
vn 0.0282 -0.4993 -0.8659
vn 0.2095 -0.1851 -0.9601
vn 0.4426 -0.1705 -0.8804
vn -0.0000 -0.9961 -0.0880
vn 0.5058 -0.0099 -0.8626
vn 0.8537 0.0593 -0.5173
vn 0.8392 0.1117 -0.5322
vn 0.9660 0.1853 0.1804
vn 0.9433 0.2678 0.1962
vn 0.5632 0.1493 0.8127
vn 0.5099 0.1589 0.8455
vn 0.0464 -0.2664 0.9627
vn 0.2267 -0.0605 0.9721
vn -0.1949 0.9706 -0.1413
vn -0.1196 0.9684 -0.2186
vn -0.1155 0.9928 0.0317
vn -0.1810 0.9830 -0.0321
vn -0.2078 0.9717 -0.1125
vn -0.2197 0.9670 -0.1291
vn 0.4909 -0.8653 -0.1015
vn 0.1215 -0.9586 -0.2575
vn 0.4882 -0.7866 -0.3781
vn 0.2816 -0.7514 -0.5968
vn -0.0093 -0.7860 -0.6181
vn -0.2445 -0.8766 -0.4145
vn -0.2551 -0.9634 -0.0828
vn -0.0086 -0.9888 0.1488
vn 0.3096 -0.9442 0.1124
vn -0.4049 0.0055 0.9144
vt 0.000000 0.407242
vt 0.000000 1.000000
vt 0.000000 0.000000
vt 0.000000 0.407242
vt 0.000000 0.407242
vt 0.000000 0.407242
vt 0.000000 0.407242
vt 0.000000 0.407242
vt 1.000000 0.000000
vt 1.000000 1.000000
s 1
f 5/1/1 44/2/2 1/2/3
f 35/3/4 10/3/5 11/3/6
f 36/3/7 6/3/8 8/3/9
f 32/3/10 12/3/11 37/3/12
f 30/3/13 9/3/14 10/3/5
f 33/3/15 8/3/9 9/3/14
f 31/3/16 7/3/17 6/3/8
f 35/3/4 13/3/18 32/3/10
f 37/3/12 7/3/17 34/3/19
f 24/3/20 21/3/21 29/3/22
f 27/3/23 15/3/24 18/3/25
f 29/3/22 16/3/26 26/3/27
f 23/3/28 20/3/29 28/3/30
f 25/3/31 20/3/29 14/3/32
f 24/3/20 18/3/25 19/3/33
f 26/3/27 17/3/34 23/3/28
f 22/3/35 14/3/32 15/3/24
f 4/4/36 25/3/31 22/3/35
f 2/5/37 23/3/28 57/5/38
f 60/6/39 27/3/23 24/3/20
f 59/5/40 28/3/30 25/3/31
f 57/5/38 28/3/30 58/7/41
f 3/8/42 26/3/27 2/5/37
f 5/1/1 22/3/35 27/3/23
f 60/6/39 29/3/22 3/8/42
f 19/3/33 34/3/19 21/3/21
f 18/3/25 35/3/4 32/3/10
f 21/3/21 31/3/16 16/3/26
f 20/3/29 36/3/7 33/3/15
f 14/3/32 33/3/15 30/3/13
f 18/3/25 37/3/12 19/3/33
f 16/3/26 36/3/7 17/3/34
f 15/3/24 30/3/13 35/3/4
f 39/9/43 40/2/44 38/3/45
f 38/3/45 43/2/46 42/3/47
f 41/10/48 44/2/2 40/2/44
f 44/2/2 46/10/49 1/2/3
f 1/2/3 48/10/50 47/2/51
f 42/3/47 50/2/52 49/3/53
f 49/3/53 52/2/54 51/3/55
f 51/3/55 54/2/56 53/3/57
f 53/3/57 47/2/51 55/3/58
f 56/3/59 47/2/51 48/10/50
f 54/2/56 4/4/36 47/2/51
f 54/2/56 58/7/41 59/5/40
f 50/2/52 58/7/41 52/2/54
f 43/2/46 57/5/38 50/2/52
f 40/2/44 2/5/37 43/2/46
f 44/2/2 3/8/42 40/2/44
f 1/2/3 4/4/36 5/1/1
f 74/3/60 75/3/61 77/3/62
f 70/9/63 69/3/64 77/9/62
f 69/3/64 71/3/65 77/3/62
f 72/3/66 73/3/67 77/3/62
f 75/3/61 76/3/68 77/3/62
f 73/3/67 74/3/60 77/3/62
f 71/3/65 72/3/66 77/3/62
f 67/3/69 68/3/70 78/3/71
f 66/3/72 65/3/73 78/3/71
f 64/3/74 63/3/75 78/3/71
f 61/3/76 62/3/77 78/3/71
f 68/3/70 66/3/72 78/3/71
f 62/3/77 67/3/69 78/3/71
f 65/3/73 64/3/74 78/3/71
f 63/3/75 61/3/76 78/3/71
f 120/2/78 83/1/79 79/2/80
f 113/3/81 88/3/82 108/3/83
f 114/3/84 84/3/85 109/3/86
f 90/3/87 110/3/88 115/3/89
f 108/3/83 87/3/90 111/3/91
f 111/3/91 86/3/92 114/3/84
f 109/3/86 85/3/93 112/3/94
f 91/3/95 113/3/81 110/3/88
f 85/3/93 115/3/89 112/3/94
f 99/3/96 102/3/97 107/3/98
f 105/3/99 93/3/100 100/3/101
f 94/3/102 107/3/98 104/3/103
f 98/3/104 101/3/105 106/3/106
f 103/3/107 98/3/104 106/3/106
f 102/3/97 96/3/108 105/3/99
f 95/3/109 104/3/103 101/3/105
f 100/3/101 92/3/110 103/3/107
f 82/4/111 103/3/107 131/5/112
f 101/3/105 80/5/113 129/5/114
f 132/6/115 105/3/99 83/1/79
f 131/5/112 106/3/106 130/7/116
f 106/3/106 129/5/114 130/7/116
f 104/3/103 81/8/117 80/5/113
f 83/1/79 100/3/101 82/4/111
f 107/3/98 132/6/115 81/8/117
f 112/3/94 97/3/118 99/3/96
f 96/3/108 113/3/81 93/3/100
f 109/3/86 99/3/96 94/3/102
f 98/3/104 114/3/84 95/3/109
f 92/3/110 111/3/91 98/3/104
f 115/3/89 96/3/108 97/3/118
f 114/3/84 94/3/102 95/3/109
f 93/3/100 108/3/83 92/3/110
f 117/2/119 39/9/43 116/3/120
f 116/3/120 119/2/121 117/2/119
f 120/2/78 41/10/48 117/2/119
f 120/2/78 46/10/49 45/10/122
f 79/2/80 48/10/50 46/10/49
f 118/3/123 123/2/124 119/2/121
f 122/3/125 125/2/126 123/2/124
f 124/3/127 127/2/128 125/2/126
f 126/3/129 121/2/130 127/2/128
f 56/3/59 121/2/130 128/3/131
f 82/4/111 127/2/128 121/2/130
f 127/2/128 130/7/116 125/2/126
f 130/7/116 123/2/124 125/2/126
f 129/5/114 119/2/121 123/2/124
f 117/2/119 80/5/113 81/8/117
f 120/2/78 81/8/117 132/6/115
f 79/2/80 82/4/111 121/2/130
f 145/3/132 77/3/62 146/3/133
f 70/9/63 77/9/62 141/3/134
f 141/3/134 77/3/62 142/3/135
f 143/3/136 77/3/62 144/3/137
f 146/3/133 77/3/62 76/3/68
f 144/3/137 77/3/62 145/3/132
f 142/3/135 77/3/62 143/3/136
f 139/3/138 147/3/139 140/3/140
f 138/3/141 147/3/139 137/3/142
f 136/3/143 147/3/139 135/3/144
f 133/3/145 147/3/139 134/3/146
f 140/3/140 147/3/139 138/3/141
f 134/3/146 147/3/139 139/3/138
f 137/3/142 147/3/139 136/3/143
f 135/3/144 147/3/139 133/3/145
f 5/1/1 60/6/39 44/2/2
f 35/3/4 30/3/13 10/3/5
f 36/3/7 31/3/16 6/3/8
f 32/3/10 13/3/18 12/3/11
f 30/3/13 33/3/15 9/3/14
f 33/3/15 36/3/7 8/3/9
f 31/3/16 34/3/19 7/3/17
f 35/3/4 11/3/6 13/3/18
f 37/3/12 12/3/11 7/3/17
f 24/3/20 19/3/33 21/3/21
f 27/3/23 22/3/35 15/3/24
f 29/3/22 21/3/21 16/3/26
f 23/3/28 17/3/34 20/3/29
f 25/3/31 28/3/30 20/3/29
f 24/3/20 27/3/23 18/3/25
f 26/3/27 16/3/26 17/3/34
f 22/3/35 25/3/31 14/3/32
f 4/4/36 59/5/40 25/3/31
f 2/5/37 26/3/27 23/3/28
f 60/6/39 5/1/1 27/3/23
f 59/5/40 58/7/41 28/3/30
f 57/5/38 23/3/28 28/3/30
f 3/8/42 29/3/22 26/3/27
f 5/1/1 4/4/36 22/3/35
f 60/6/39 24/3/20 29/3/22
f 19/3/33 37/3/12 34/3/19
f 18/3/25 15/3/24 35/3/4
f 21/3/21 34/3/19 31/3/16
f 20/3/29 17/3/34 36/3/7
f 14/3/32 20/3/29 33/3/15
f 18/3/25 32/3/10 37/3/12
f 16/3/26 31/3/16 36/3/7
f 15/3/24 14/3/32 30/3/13
f 39/9/43 41/10/48 40/2/44
f 38/3/45 40/2/44 43/2/46
f 41/10/48 45/10/122 44/2/2
f 44/2/2 45/10/122 46/10/49
f 1/2/3 46/10/49 48/10/50
f 42/3/47 43/2/46 50/2/52
f 49/3/53 50/2/52 52/2/54
f 51/3/55 52/2/54 54/2/56
f 53/3/57 54/2/56 47/2/51
f 56/3/59 55/3/58 47/2/51
f 54/2/56 59/5/40 4/4/36
f 54/2/56 52/2/54 58/7/41
f 50/2/52 57/5/38 58/7/41
f 43/2/46 2/5/37 57/5/38
f 40/2/44 3/8/42 2/5/37
f 44/2/2 60/6/39 3/8/42
f 1/2/3 47/2/51 4/4/36
f 120/2/78 132/6/115 83/1/79
f 113/3/81 89/3/147 88/3/82
f 114/3/84 86/3/92 84/3/85
f 90/3/87 91/3/95 110/3/88
f 108/3/83 88/3/82 87/3/90
f 111/3/91 87/3/90 86/3/92
f 109/3/86 84/3/85 85/3/93
f 91/3/95 89/3/147 113/3/81
f 85/3/93 90/3/87 115/3/89
f 99/3/96 97/3/118 102/3/97
f 105/3/99 96/3/108 93/3/100
f 94/3/102 99/3/96 107/3/98
f 98/3/104 95/3/109 101/3/105
f 103/3/107 92/3/110 98/3/104
f 102/3/97 97/3/118 96/3/108
f 95/3/109 94/3/102 104/3/103
f 100/3/101 93/3/100 92/3/110
f 82/4/111 100/3/101 103/3/107
f 101/3/105 104/3/103 80/5/113
f 132/6/115 102/3/97 105/3/99
f 131/5/112 103/3/107 106/3/106
f 106/3/106 101/3/105 129/5/114
f 104/3/103 107/3/98 81/8/117
f 83/1/79 105/3/99 100/3/101
f 107/3/98 102/3/97 132/6/115
f 112/3/94 115/3/89 97/3/118
f 96/3/108 110/3/88 113/3/81
f 109/3/86 112/3/94 99/3/96
f 98/3/104 111/3/91 114/3/84
f 92/3/110 108/3/83 111/3/91
f 115/3/89 110/3/88 96/3/108
f 114/3/84 109/3/86 94/3/102
f 93/3/100 113/3/81 108/3/83
f 117/2/119 41/10/48 39/9/43
f 116/3/120 118/3/123 119/2/121
f 120/2/78 45/10/122 41/10/48
f 120/2/78 79/2/80 46/10/49
f 79/2/80 121/2/130 48/10/50
f 118/3/123 122/3/125 123/2/124
f 122/3/125 124/3/127 125/2/126
f 124/3/127 126/3/129 127/2/128
f 126/3/129 128/3/131 121/2/130
f 56/3/59 48/10/50 121/2/130
f 82/4/111 131/5/112 127/2/128
f 127/2/128 131/5/112 130/7/116
f 130/7/116 129/5/114 123/2/124
f 129/5/114 80/5/113 119/2/121
f 117/2/119 119/2/121 80/5/113
f 120/2/78 117/2/119 81/8/117
f 79/2/80 83/1/79 82/4/111
