# Blender 4.0.2
# www.blender.org
o AvatarBase.003
v -0.173897 1.494526 0.227999
v -0.540592 1.491884 -0.288658
v -0.295398 1.408116 -0.257513
v -0.399522 1.535499 0.361141
v -0.200198 1.437845 0.232439
v -0.615854 0.262130 -0.220886
v -0.398641 0.228854 -0.222012
v -0.778284 0.246143 -0.075208
v -0.787355 0.190164 0.126365
v -0.634762 0.125164 0.266071
v -0.436348 0.088983 0.268120
v -0.270513 0.172680 -0.093350
v -0.270642 0.121409 0.087511
v -0.623599 0.827183 0.254017
v -0.423237 0.796839 0.276778
v -0.572421 0.842638 -0.226985
v -0.735999 0.863346 -0.104339
v -0.261852 0.779704 0.158024
v -0.238107 0.783286 -0.047403
v -0.757952 0.856363 0.100114
v -0.371018 0.809455 -0.205904
v -0.413068 1.148445 0.340987
v -0.773626 1.206221 -0.116755
v -0.195648 1.070706 -0.041770
v -0.649925 1.203718 0.313211
v -0.581501 1.150462 -0.258371
v -0.223635 1.094022 0.198512
v -0.805438 1.229457 0.125230
v -0.345790 1.094956 -0.230658
v -0.632698 0.504432 0.234448
v -0.566376 0.574387 -0.211176
v -0.273624 0.489369 0.153479
v -0.750400 0.541639 0.094064
v -0.368096 0.553658 -0.190294
v -0.439991 0.481335 0.256290
v -0.725130 0.566597 -0.092878
v -0.243425 0.517612 -0.036452
v -0.286531 1.888437 -0.444360
v 0.000000 1.878336 -0.473888
v -0.280545 1.547172 -0.359526
v 0.000000 1.500652 -0.342878
v -0.507009 1.923793 -0.352527
v -0.554657 1.606643 -0.319907
v -0.162129 1.423397 -0.046260
v 0.000000 1.420382 -0.080188
v 0.000000 1.486392 0.227447
v -0.279333 1.683477 0.406773
v 0.000000 1.636241 0.401964
v -0.693209 1.967756 -0.204503
v -0.739836 1.742848 -0.174655
v -0.734799 2.017536 0.053493
v -0.782407 1.823861 0.067419
v -0.516203 1.999546 0.353405
v -0.605974 1.800301 0.357257
v -0.239246 1.978715 0.461417
v 0.000000 1.965333 0.486033
v -0.754927 1.570756 -0.155109
v -0.801684 1.616823 0.086490
v -0.666186 1.596456 0.313897
v -0.172771 1.392757 -0.046594
v -0.615854 0.262130 -0.220886
v -0.398641 0.228854 -0.222012
v -0.778284 0.246143 -0.075208
v -0.787355 0.190164 0.126365
v -0.634762 0.125164 0.266071
v -0.436348 0.088983 0.268120
v -0.270513 0.172680 -0.093350
v -0.270642 0.121409 0.087511
v -0.286531 1.888437 -0.444360
v 0.000000 1.878336 -0.473888
v -0.507009 1.923793 -0.352527
v -0.693209 1.967756 -0.204503
v -0.734799 2.017536 0.053493
v -0.516203 1.999546 0.353405
v -0.239246 1.978715 0.461417
v 0.000000 1.965333 0.486033
v 0.000000 1.841973 -0.015116
v -0.527328 0.302494 0.042207
v 0.173897 1.494526 0.227999
v 0.540592 1.491884 -0.288658
v 0.295398 1.408116 -0.257513
v 0.399522 1.535499 0.361141
v 0.200198 1.437845 0.232439
v 0.615854 0.262130 -0.220886
v 0.398641 0.228854 -0.222012
v 0.778284 0.246143 -0.075208
v 0.787355 0.190164 0.126365
v 0.634762 0.125164 0.266071
v 0.436348 0.088983 0.268120
v 0.270513 0.172680 -0.093350
v 0.270642 0.121409 0.087511
v 0.623599 0.827183 0.254017
v 0.423237 0.796839 0.276778
v 0.572421 0.842638 -0.226985
v 0.735999 0.863346 -0.104339
v 0.261852 0.779704 0.158024
v 0.238107 0.783286 -0.047403
v 0.757952 0.856363 0.100114
v 0.371018 0.809455 -0.205904
v 0.413068 1.148445 0.340987
v 0.773626 1.206221 -0.116755
v 0.195648 1.070706 -0.041770
v 0.649925 1.203718 0.313211
v 0.581501 1.150462 -0.258371
v 0.223635 1.094022 0.198512
v 0.805438 1.229457 0.125230
v 0.345790 1.094956 -0.230658
v 0.632698 0.504432 0.234448
v 0.566376 0.574387 -0.211176
v 0.273624 0.489369 0.153479
v 0.750400 0.541639 0.094064
v 0.368096 0.553658 -0.190294
v 0.439991 0.481335 0.256290
v 0.725130 0.566597 -0.092878
v 0.243425 0.517612 -0.036452
v 0.286531 1.888437 -0.444360
v 0.280545 1.547172 -0.359526
v 0.507009 1.923793 -0.352527
v 0.554657 1.606643 -0.319907
v 0.162129 1.423397 -0.046260
v 0.279333 1.683477 0.406773
v 0.693209 1.967756 -0.204503
v 0.739836 1.742848 -0.174655
v 0.734799 2.017536 0.053493
v 0.782407 1.823861 0.067419
v 0.516203 1.999546 0.353405
v 0.605974 1.800301 0.357257
v 0.239246 1.978715 0.461417
v 0.754927 1.570756 -0.155109
v 0.801684 1.616823 0.086490
v 0.666186 1.596456 0.313897
v 0.172771 1.392757 -0.046594
v 0.615854 0.262130 -0.220886
v 0.398641 0.228854 -0.222012
v 0.778284 0.246143 -0.075208
v 0.787355 0.190164 0.126365
v 0.634762 0.125164 0.266071
v 0.436348 0.088983 0.268120
v 0.270513 0.172680 -0.093350
v 0.270642 0.121409 0.087511
v 0.286531 1.888437 -0.444360
v 0.507009 1.923793 -0.352527
v 0.693209 1.967756 -0.204503
v 0.734799 2.017536 0.053493
v 0.516203 1.999546 0.353405
v 0.239246 1.978715 0.461417
v 0.527328 0.302494 0.042207
vn 0.7879 -0.1989 0.5828
vn 0.5374 -0.8327 -0.1335
vn 0.3386 -0.7055 0.6225
vn 0.2556 -0.0320 0.9663
vn -0.3066 0.0570 0.9501
vn 0.4045 0.0313 0.9140
vn -0.8625 0.0434 -0.5042
vn -0.3623 0.0647 -0.9298
vn -0.9273 0.1071 -0.3586
vn 0.8280 -0.0814 0.5548
vn 0.9470 0.0143 -0.3210
vn 0.9672 -0.0442 -0.2502
vn -0.4648 0.0357 0.8847
vn -0.8760 0.1012 0.4715
vn -0.9550 0.0632 0.2898
vn -0.2584 0.0133 -0.9659
vn 0.4482 0.0462 -0.8927
vn 0.9101 -0.0096 0.4142
vn 0.4922 -0.0060 -0.8705
vn 0.9568 -0.1064 -0.2705
vn 0.4537 -0.0800 -0.8875
vn 0.4742 -0.1171 -0.8726
vn 0.8507 -0.1349 0.5080
vn 0.2462 -0.1301 0.9604
vn 0.8551 -0.1110 0.5065
vn -0.2741 -0.0829 -0.9581
vn -0.2880 -0.0801 -0.9543
vn -0.8691 -0.0520 -0.4918
vn -0.9544 -0.0924 0.2840
vn -0.9615 -0.0589 0.2686
vn -0.4877 -0.0957 0.8677
vn -0.4747 -0.1104 0.8732
vn 0.9501 -0.0806 -0.3013
vn -0.8653 -0.0842 -0.4942
vn 0.2206 -0.1282 0.9669
vn 0.0826 -0.1848 0.9793
vn -0.3193 -0.2202 -0.9217
vn -0.8476 -0.0251 -0.5301
vn 0.9519 -0.2125 -0.2207
vn -0.5999 0.0106 0.8000
vn -0.9830 0.0684 0.1703
vn 0.5106 -0.3590 -0.7813
vn -0.0000 -0.2797 -0.9601
vn -0.0243 -0.5119 -0.8587
vn -0.2093 -0.1851 -0.9602
vn -0.4422 -0.1694 -0.8808
vn -0.5058 -0.0099 -0.8626
vn -0.0000 -0.7420 -0.6704
vn -0.0000 -0.8914 0.4533
vn -0.0000 -0.5353 0.8447
vn -0.0702 -0.3199 0.9448
vn -0.8509 0.0599 -0.5219
vn -0.8375 0.1135 -0.5346
vn -0.9702 0.1777 0.1645
vn -0.9421 0.2705 0.1982
vn -0.5323 0.1109 0.8392
vn -0.4857 0.1503 0.8611
vn -0.2325 -0.1464 0.9615
vn -0.0000 -0.2058 0.9786
vn 0.1952 0.9705 -0.1415
vn 0.1211 0.9686 -0.2171
vn -0.0000 0.9958 -0.0919
vn -0.0000 0.9969 0.0790
vn 0.1152 0.9929 0.0306
vn 0.1805 0.9830 -0.0329
vn 0.2072 0.9718 -0.1129
vn 0.2189 0.9670 -0.1300
vn -0.0000 0.9710 -0.2390
vn -0.4909 -0.8653 -0.1015
vn -0.4882 -0.7866 -0.3781
vn -0.1215 -0.9586 -0.2575
vn -0.2816 -0.7514 -0.5968
vn 0.0093 -0.7860 -0.6181
vn 0.2445 -0.8766 -0.4145
vn 0.2551 -0.9634 -0.0828
vn 0.0086 -0.9888 0.1488
vn -0.3096 -0.9442 0.1124
vn -0.5374 -0.8327 -0.1335
vn -0.7879 -0.1989 0.5828
vn -0.3386 -0.7055 0.6225
vn -0.2556 -0.0320 0.9663
vn 0.3066 0.0570 0.9501
vn 0.4648 0.0357 0.8847
vn 0.8625 0.0434 -0.5042
vn 0.3623 0.0647 -0.9298
vn 0.2584 0.0133 -0.9659
vn -0.9470 0.0143 -0.3210
vn -0.8280 -0.0814 0.5548
vn -0.9672 -0.0442 -0.2502
vn 0.8760 0.1012 0.4715
vn 0.9550 0.0632 0.2898
vn 0.9273 0.1071 -0.3586
vn -0.4482 0.0462 -0.8927
vn -0.4922 -0.0060 -0.8705
vn -0.9101 -0.0096 0.4142
vn -0.4537 -0.0800 -0.8876
vn -0.9568 -0.1064 -0.2705
vn -0.4742 -0.1171 -0.8726
vn -0.8507 -0.1349 0.5080
vn -0.2462 -0.1301 0.9604
vn -0.2206 -0.1282 0.9669
vn 0.2741 -0.0829 -0.9581
vn 0.2880 -0.0801 -0.9543
vn 0.9544 -0.0924 0.2840
vn 0.8691 -0.0520 -0.4918
vn 0.9615 -0.0589 0.2686
vn 0.4877 -0.0957 0.8677
vn -0.8551 -0.1110 0.5065
vn 0.8653 -0.0842 -0.4942
vn 0.4747 -0.1104 0.8732
vn -0.0826 -0.1848 0.9793
vn 0.5999 0.0106 0.8000
vn 0.3193 -0.2202 -0.9217
vn 0.8476 -0.0251 -0.5301
vn -0.9519 -0.2125 -0.2207
vn 0.9830 0.0684 0.1703
vn -0.5106 -0.3590 -0.7813
vn -0.9501 -0.0806 -0.3013
vn 0.0243 -0.5119 -0.8587
vn 0.2093 -0.1851 -0.9602
vn 0.4422 -0.1694 -0.8808
vn -0.0000 -0.9972 -0.0751
vn 0.5058 -0.0099 -0.8626
vn 0.8509 0.0599 -0.5219
vn 0.8375 0.1135 -0.5346
vn 0.9702 0.1777 0.1645
vn 0.9421 0.2705 0.1982
vn 0.5323 0.1109 0.8392
vn 0.4857 0.1503 0.8611
vn 0.0702 -0.3199 0.9448
vn 0.2325 -0.1464 0.9615
vn -0.1952 0.9705 -0.1415
vn -0.1211 0.9686 -0.2171
vn -0.1152 0.9929 0.0306
vn -0.1805 0.9830 -0.0329
vn -0.2072 0.9718 -0.1129
vn -0.2189 0.9670 -0.1300
vn 0.4909 -0.8653 -0.1015
vn 0.1215 -0.9586 -0.2575
vn 0.4882 -0.7866 -0.3781
vn 0.2816 -0.7514 -0.5968
vn -0.0093 -0.7860 -0.6181
vn -0.2445 -0.8766 -0.4145
vn -0.2551 -0.9634 -0.0828
vn -0.0086 -0.9888 0.1488
vn 0.3096 -0.9442 0.1124
vn -0.4045 0.0313 0.9140
vt 0.000000 0.407242
vt 0.000000 1.000000
vt 0.000000 0.000000
vt 0.000000 0.407242
vt 0.000000 0.407242
vt 0.000000 0.407242
vt 0.000000 0.407242
vt 0.000000 0.407242
vt 1.000000 0.000000
vt 1.000000 1.000000
s 1
f 5/1/1 44/2/2 1/2/3
f 35/3/4 10/3/5 11/3/6
f 36/3/7 6/3/8 8/3/9
f 32/3/10 12/3/11 37/3/12
f 30/3/13 9/3/14 10/3/5
f 33/3/15 8/3/9 9/3/14
f 31/3/16 7/3/17 6/3/8
f 35/3/4 13/3/18 32/3/10
f 37/3/12 7/3/17 34/3/19
f 24/3/20 21/3/21 29/3/22
f 27/3/23 15/3/24 18/3/25
f 29/3/22 16/3/26 26/3/27
f 23/3/28 20/3/29 28/3/30
f 25/3/31 20/3/29 14/3/32
f 24/3/20 18/3/25 19/3/33
f 26/3/27 17/3/34 23/3/28
f 22/3/35 14/3/32 15/3/24
f 4/4/36 25/3/31 22/3/35
f 2/5/37 23/3/28 57/5/38
f 60/6/39 27/3/23 24/3/20
f 59/5/40 28/3/30 25/3/31
f 57/5/38 28/3/30 58/7/41
f 3/8/42 26/3/27 2/5/37
f 5/1/1 22/3/35 27/3/23
f 60/6/39 29/3/22 3/8/42
f 19/3/33 34/3/19 21/3/21
f 18/3/25 35/3/4 32/3/10
f 21/3/21 31/3/16 16/3/26
f 20/3/29 36/3/7 33/3/15
f 14/3/32 33/3/15 30/3/13
f 18/3/25 37/3/12 19/3/33
f 16/3/26 36/3/7 17/3/34
f 15/3/24 30/3/13 35/3/4
f 39/9/43 40/2/44 38/3/45
f 38/3/45 43/2/46 42/3/47
f 41/10/48 44/2/2 40/2/44
f 44/2/2 46/10/49 1/2/3
f 1/2/3 48/10/50 47/2/51
f 42/3/47 50/2/52 49/3/53
f 49/3/53 52/2/54 51/3/55
f 51/3/55 54/2/56 53/3/57
f 53/3/57 47/2/51 55/3/58
f 56/3/59 47/2/51 48/10/50
f 54/2/56 4/4/36 47/2/51
f 52/2/54 59/5/40 54/2/56
f 50/2/52 58/7/41 52/2/54
f 43/2/46 57/5/38 50/2/52
f 40/2/44 2/5/37 43/2/46
f 44/2/2 3/8/42 40/2/44
f 1/2/3 4/4/36 5/1/1
f 74/3/60 75/3/61 77/3/62
f 70/9/63 69/3/64 77/9/62
f 69/3/64 71/3/65 77/3/62
f 72/3/66 73/3/67 77/3/62
f 75/3/61 76/3/68 77/3/62
f 73/3/67 74/3/60 77/3/62
f 71/3/65 72/3/66 77/3/62
f 67/3/69 68/3/70 78/3/71
f 66/3/72 65/3/73 78/3/71
f 64/3/74 63/3/75 78/3/71
f 61/3/76 62/3/77 78/3/71
f 68/3/70 66/3/72 78/3/71
f 62/3/77 67/3/69 78/3/71
f 65/3/73 64/3/74 78/3/71
f 63/3/75 61/3/76 78/3/71
f 120/2/78 83/1/79 79/2/80
f 113/3/81 88/3/82 108/3/83
f 114/3/84 84/3/85 109/3/86
f 90/3/87 110/3/88 115/3/89
f 108/3/83 87/3/90 111/3/91
f 111/3/91 86/3/92 114/3/84
f 109/3/86 85/3/93 112/3/94
f 91/3/95 113/3/81 110/3/88
f 85/3/93 115/3/89 112/3/94
f 99/3/96 102/3/97 107/3/98
f 105/3/99 93/3/100 100/3/101
f 94/3/102 107/3/98 104/3/103
f 98/3/104 101/3/105 106/3/106
f 103/3/107 98/3/104 106/3/106
f 102/3/97 96/3/108 105/3/99
f 95/3/109 104/3/103 101/3/105
f 100/3/101 92/3/110 103/3/107
f 82/4/111 103/3/107 131/5/112
f 101/3/105 80/5/113 129/5/114
f 132/6/115 105/3/99 83/1/79
f 131/5/112 106/3/106 130/7/116
f 106/3/106 129/5/114 130/7/116
f 104/3/103 81/8/117 80/5/113
f 83/1/79 100/3/101 82/4/111
f 107/3/98 132/6/115 81/8/117
f 112/3/94 97/3/118 99/3/96
f 96/3/108 113/3/81 93/3/100
f 109/3/86 99/3/96 94/3/102
f 98/3/104 114/3/84 95/3/109
f 92/3/110 111/3/91 98/3/104
f 115/3/89 96/3/108 97/3/118
f 114/3/84 94/3/102 95/3/109
f 93/3/100 108/3/83 92/3/110
f 117/2/119 39/9/43 116/3/120
f 116/3/120 119/2/121 117/2/119
f 120/2/78 41/10/48 117/2/119
f 120/2/78 46/10/49 45/10/122
f 79/2/80 48/10/50 46/10/49
f 118/3/123 123/2/124 119/2/121
f 122/3/125 125/2/126 123/2/124
f 124/3/127 127/2/128 125/2/126
f 126/3/129 121/2/130 127/2/128
f 56/3/59 121/2/130 128/3/131
f 82/4/111 127/2/128 121/2/130
f 131/5/112 125/2/126 127/2/128
f 130/7/116 123/2/124 125/2/126
f 129/5/114 119/2/121 123/2/124
f 117/2/119 80/5/113 81/8/117
f 120/2/78 81/8/117 132/6/115
f 79/2/80 82/4/111 121/2/130
f 145/3/132 77/3/62 146/3/133
f 70/9/63 77/9/62 141/3/134
f 141/3/134 77/3/62 142/3/135
f 143/3/136 77/3/62 144/3/137
f 146/3/133 77/3/62 76/3/68
f 144/3/137 77/3/62 145/3/132
f 142/3/135 77/3/62 143/3/136
f 139/3/138 147/3/139 140/3/140
f 138/3/141 147/3/139 137/3/142
f 136/3/143 147/3/139 135/3/144
f 133/3/145 147/3/139 134/3/146
f 140/3/140 147/3/139 138/3/141
f 134/3/146 147/3/139 139/3/138
f 137/3/142 147/3/139 136/3/143
f 135/3/144 147/3/139 133/3/145
f 5/1/1 60/6/39 44/2/2
f 35/3/4 30/3/13 10/3/5
f 36/3/7 31/3/16 6/3/8
f 32/3/10 13/3/18 12/3/11
f 30/3/13 33/3/15 9/3/14
f 33/3/15 36/3/7 8/3/9
f 31/3/16 34/3/19 7/3/17
f 35/3/4 11/3/6 13/3/18
f 37/3/12 12/3/11 7/3/17
f 24/3/20 19/3/33 21/3/21
f 27/3/23 22/3/35 15/3/24
f 29/3/22 21/3/21 16/3/26
f 23/3/28 17/3/34 20/3/29
f 25/3/31 28/3/30 20/3/29
f 24/3/20 27/3/23 18/3/25
f 26/3/27 16/3/26 17/3/34
f 22/3/35 25/3/31 14/3/32
f 4/4/36 59/5/40 25/3/31
f 2/5/37 26/3/27 23/3/28
f 60/6/39 5/1/1 27/3/23
f 59/5/40 58/7/41 28/3/30
f 57/5/38 23/3/28 28/3/30
f 3/8/42 29/3/22 26/3/27
f 5/1/1 4/4/36 22/3/35
f 60/6/39 24/3/20 29/3/22
f 19/3/33 37/3/12 34/3/19
f 18/3/25 15/3/24 35/3/4
f 21/3/21 34/3/19 31/3/16
f 20/3/29 17/3/34 36/3/7
f 14/3/32 20/3/29 33/3/15
f 18/3/25 32/3/10 37/3/12
f 16/3/26 31/3/16 36/3/7
f 15/3/24 14/3/32 30/3/13
f 39/9/43 41/10/48 40/2/44
f 38/3/45 40/2/44 43/2/46
f 41/10/48 45/10/122 44/2/2
f 44/2/2 45/10/122 46/10/49
f 1/2/3 46/10/49 48/10/50
f 42/3/47 43/2/46 50/2/52
f 49/3/53 50/2/52 52/2/54
f 51/3/55 52/2/54 54/2/56
f 53/3/57 54/2/56 47/2/51
f 56/3/59 55/3/58 47/2/51
f 54/2/56 59/5/40 4/4/36
f 52/2/54 58/7/41 59/5/40
f 50/2/52 57/5/38 58/7/41
f 43/2/46 2/5/37 57/5/38
f 40/2/44 3/8/42 2/5/37
f 44/2/2 60/6/39 3/8/42
f 1/2/3 47/2/51 4/4/36
f 120/2/78 132/6/115 83/1/79
f 113/3/81 89/3/147 88/3/82
f 114/3/84 86/3/92 84/3/85
f 90/3/87 91/3/95 110/3/88
f 108/3/83 88/3/82 87/3/90
f 111/3/91 87/3/90 86/3/92
f 109/3/86 84/3/85 85/3/93
f 91/3/95 89/3/147 113/3/81
f 85/3/93 90/3/87 115/3/89
f 99/3/96 97/3/118 102/3/97
f 105/3/99 96/3/108 93/3/100
f 94/3/102 99/3/96 107/3/98
f 98/3/104 95/3/109 101/3/105
f 103/3/107 92/3/110 98/3/104
f 102/3/97 97/3/118 96/3/108
f 95/3/109 94/3/102 104/3/103
f 100/3/101 93/3/100 92/3/110
f 82/4/111 100/3/101 103/3/107
f 101/3/105 104/3/103 80/5/113
f 132/6/115 102/3/97 105/3/99
f 131/5/112 103/3/107 106/3/106
f 106/3/106 101/3/105 129/5/114
f 104/3/103 107/3/98 81/8/117
f 83/1/79 105/3/99 100/3/101
f 107/3/98 102/3/97 132/6/115
f 112/3/94 115/3/89 97/3/118
f 96/3/108 110/3/88 113/3/81
f 109/3/86 112/3/94 99/3/96
f 98/3/104 111/3/91 114/3/84
f 92/3/110 108/3/83 111/3/91
f 115/3/89 110/3/88 96/3/108
f 114/3/84 109/3/86 94/3/102
f 93/3/100 113/3/81 108/3/83
f 117/2/119 41/10/48 39/9/43
f 116/3/120 118/3/123 119/2/121
f 120/2/78 45/10/122 41/10/48
f 120/2/78 79/2/80 46/10/49
f 79/2/80 121/2/130 48/10/50
f 118/3/123 122/3/125 123/2/124
f 122/3/125 124/3/127 125/2/126
f 124/3/127 126/3/129 127/2/128
f 126/3/129 128/3/131 121/2/130
f 56/3/59 48/10/50 121/2/130
f 82/4/111 131/5/112 127/2/128
f 131/5/112 130/7/116 125/2/126
f 130/7/116 129/5/114 123/2/124
f 129/5/114 80/5/113 119/2/121
f 117/2/119 119/2/121 80/5/113
f 120/2/78 117/2/119 81/8/117
f 79/2/80 83/1/79 82/4/111
