# Blender 4.0.2
# www.blender.org
o FemRemeshed.001
v -0.214843 2.263767 -0.409219
v 0.000000 2.256692 -0.440333
v -0.217827 2.462722 -0.362396
v 0.000000 2.457852 -0.396983
v -0.207112 2.715245 -0.296013
v 0.000000 2.729376 -0.315936
v -0.423681 2.287422 -0.306363
v -0.552199 2.311197 -0.151548
v -0.529922 2.321309 0.042754
v -0.387557 2.339835 0.173949
v -0.174996 2.333149 0.266127
v 0.000000 2.332075 0.291750
v 0.000000 2.493576 0.288303
v -0.511490 2.588033 -0.113138
v -0.450610 2.530308 0.083577
v -0.358949 2.510077 0.170843
v -0.450790 2.622438 -0.151344
v -0.343357 2.696112 -0.248553
v -0.391616 2.465281 -0.282983
v -0.156937 2.497947 0.261810
v 0.214843 2.263767 -0.409219
v 0.217827 2.462722 -0.362396
v 0.207112 2.715245 -0.296013
v 0.423681 2.287422 -0.306363
v 0.552199 2.311197 -0.151548
v 0.529922 2.321309 0.042754
v 0.387557 2.339835 0.173949
v 0.174996 2.333149 0.266127
v 0.511490 2.588033 -0.113138
v 0.450610 2.530308 0.083577
v 0.358949 2.510077 0.170843
v 0.450790 2.622438 -0.151344
v 0.343357 2.696112 -0.248553
v 0.391616 2.465281 -0.282983
v 0.156937 2.497947 0.261810
vn -0.2669 0.2127 -0.9400
vn -0.0000 0.2440 -0.9698
vn -0.0000 0.2107 -0.9776
vn -0.2334 0.2649 -0.9356
vn -0.0000 0.2860 -0.9582
vn -0.2769 0.2287 -0.9333
vn -0.5792 0.2110 -0.7874
vn -0.5760 0.2213 -0.7869
vn -0.5176 0.2480 -0.8189
vn -0.9209 0.1882 -0.3413
vn -0.6801 0.3031 -0.6676
vn -0.9004 0.2804 -0.3327
vn -0.0000 0.0320 0.9995
vn -0.2785 0.0500 0.9591
vn -0.2820 0.0595 0.9576
vn -0.8927 0.1696 0.4174
vn -0.5579 0.1050 0.8232
vn -0.7978 0.1955 0.5703
vn -0.5399 0.1026 0.8355
vn 0.2669 0.2127 -0.9400
vn 0.2334 0.2649 -0.9356
vn 0.2769 0.2287 -0.9333
vn 0.5792 0.2110 -0.7874
vn 0.5176 0.2480 -0.8189
vn 0.5760 0.2213 -0.7869
vn 0.9209 0.1882 -0.3413
vn 0.9004 0.2804 -0.3327
vn 0.6801 0.3031 -0.6676
vn 0.2785 0.0500 0.9591
vn 0.2820 0.0595 0.9576
vn 0.8927 0.1696 0.4174
vn 0.7978 0.1955 0.5703
vn 0.5579 0.1050 0.8232
vn 0.5399 0.1026 0.8355
vn -0.0000 0.0213 0.9998
vt 0.000000 0.000000
vt 1.000000 0.000000
s 1
f 1/1/1 4/2/2 2/2/3
f 4/2/2 5/1/4 6/2/5
f 3/1/6 7/1/7 19/1/8
f 3/1/6 18/1/9 5/1/4
f 8/1/10 19/1/8 7/1/7
f 17/1/11 19/1/8 14/1/12
f 12/1/13 20/1/14 11/1/15
f 9/1/16 14/1/12 8/1/10
f 10/1/17 15/1/18 9/1/16
f 11/1/15 16/1/19 10/1/17
f 4/2/2 21/1/20 2/2/3
f 4/2/2 23/1/21 22/1/22
f 22/1/22 24/1/23 21/1/20
f 22/1/22 33/1/24 34/1/25
f 25/1/26 34/1/25 29/1/27
f 32/1/28 34/1/25 33/1/24
f 35/1/29 12/1/13 28/1/30
f 26/1/31 29/1/27 30/1/32
f 27/1/33 30/1/32 31/1/34
f 28/1/30 31/1/34 35/1/29
f 1/1/1 3/1/6 4/2/2
f 4/2/2 3/1/6 5/1/4
f 3/1/6 1/1/1 7/1/7
f 3/1/6 19/1/8 18/1/9
f 8/1/10 14/1/12 19/1/8
f 17/1/11 18/1/9 19/1/8
f 12/1/13 13/1/35 20/1/14
f 9/1/16 15/1/18 14/1/12
f 10/1/17 16/1/19 15/1/18
f 11/1/15 20/1/14 16/1/19
f 4/2/2 22/1/22 21/1/20
f 4/2/2 6/2/5 23/1/21
f 22/1/22 34/1/25 24/1/23
f 22/1/22 23/1/21 33/1/24
f 25/1/26 24/1/23 34/1/25
f 32/1/28 29/1/27 34/1/25
f 35/1/29 13/1/35 12/1/13
f 26/1/31 25/1/26 29/1/27
f 27/1/33 26/1/31 30/1/32
f 28/1/30 27/1/33 31/1/34
