# Blender 4.0.2
# www.blender.org
o Cube
v -8.000000 -8.000000 8.000001
v 8.000000 8.000001 8.000000
v -8.000000 8.000001 8.000000
v -8.000000 -8.000001 -8.000000
v -8.000000 8.000000 -8.000001
v 8.000000 -8.000000 8.000001
v 8.000000 -8.000001 -8.000000
v 8.000000 8.000000 -8.000001
v 8.000000 8.000000 -8.000001
v 8.000000 -8.000001 -8.000000
v 8.000000 -8.000000 8.000001
v -8.000000 8.000000 -8.000001
v -8.000000 -8.000001 -8.000000
v -8.000000 8.000001 8.000000
v 8.000000 8.000001 8.000000
v -8.000000 -8.000000 8.000001
v 8.000000 8.000000 -8.000001
v 8.000000 -8.000001 -8.000000
v 8.000000 -8.000000 8.000001
v -8.000000 8.000000 -8.000001
v -8.000000 -8.000001 -8.000000
v -8.000000 8.000001 8.000000
v 8.000000 8.000001 8.000000
v -8.000000 -8.000000 8.000001
v -4.000000 -8.000001 -8.000000
v 0.000000 -8.000001 -8.000000
v 4.000000 -8.000001 -8.000000
v 8.000000 4.000000 8.000000
v 8.000000 0.000000 8.000000
v 8.000000 -4.000000 8.000000
v -8.000000 -4.000000 8.000001
v -8.000000 0.000000 8.000001
v -8.000000 4.000000 8.000000
v -8.000000 -8.000000 4.000000
v -8.000000 -8.000000 0.000000
v -8.000000 -8.000000 -4.000000
v 8.000000 -8.000001 -4.000000
v 8.000000 -8.000001 0.000000
v 8.000000 -8.000000 4.000000
v -8.000000 8.000000 -4.000000
v -8.000000 8.000000 -0.000000
v -8.000000 8.000000 4.000000
v 4.000000 8.000000 -8.000001
v 0.000000 8.000000 -8.000001
v -4.000000 8.000000 -8.000001
v 4.000000 8.000000 -8.000001
v 0.000000 8.000000 -8.000001
v -4.000000 8.000000 -8.000001
v 8.000000 8.000001 4.000000
v 8.000000 8.000001 -0.000000
v 8.000000 8.000000 -4.000000
v -8.000000 8.000000 -4.000000
v -8.000000 8.000000 -0.000000
v -8.000000 8.000000 4.000000
v -8.000000 -8.000000 4.000000
v -8.000000 -8.000000 0.000000
v -8.000000 -8.000000 -4.000000
v 8.000000 4.000000 8.000000
v 8.000000 0.000000 8.000000
v 8.000000 -4.000000 8.000000
v -8.000000 4.000000 -8.000001
v -8.000000 -0.000000 -8.000001
v -8.000000 -4.000000 -8.000000
v -4.000000 -8.000001 -8.000000
v 0.000000 -8.000001 -8.000000
v 4.000000 -8.000001 -8.000000
v -8.000000 4.000000 -8.000001
v -8.000000 -0.000000 -8.000001
v -8.000000 -4.000000 -8.000000
v 8.000000 -8.000001 -4.000000
v 8.000000 -8.000001 0.000000
v 8.000000 -8.000000 4.000000
v -4.000000 8.000001 8.000000
v 0.000000 8.000001 8.000000
v 4.000000 8.000001 8.000000
v 8.000000 8.000001 4.000000
v 8.000000 8.000001 -0.000000
v 8.000000 8.000000 -4.000000
v -4.000000 8.000001 8.000000
v 0.000000 8.000001 8.000000
v 4.000000 8.000001 8.000000
v 4.000000 -8.000000 8.000001
v 0.000000 -8.000000 8.000001
v -4.000000 -8.000000 8.000001
v 8.000000 -4.000000 -8.000000
v 8.000000 -0.000000 -8.000000
v 8.000000 4.000000 -8.000000
v 8.000000 -4.000000 -8.000000
v 8.000000 -0.000000 -8.000000
v 8.000000 4.000000 -8.000000
v 4.000000 -8.000000 8.000001
v 0.000000 -8.000000 8.000001
v -4.000000 -8.000000 8.000001
v -8.000000 -4.000000 8.000001
v -8.000000 0.000000 8.000001
v -8.000000 4.000000 8.000000
v 4.000000 -4.000000 8.000001
v 4.000000 0.000000 8.000001
v 4.000000 4.000000 8.000000
v 0.000000 -4.000000 8.000001
v 0.000000 0.000000 8.000001
v 0.000000 4.000000 8.000000
v -4.000000 -4.000000 8.000001
v -4.000000 0.000000 8.000001
v -4.000000 4.000000 8.000000
v 8.000000 4.000000 -4.000000
v 8.000000 4.000000 0.000000
v 8.000000 4.000001 4.000000
v 8.000000 -0.000000 -4.000000
v 8.000000 0.000000 0.000000
v 8.000000 0.000000 4.000000
v 8.000000 -4.000000 -4.000000
v 8.000000 -4.000000 -0.000000
v 8.000000 -4.000000 4.000000
v -8.000000 4.000000 4.000000
v -8.000000 4.000000 -0.000000
v -8.000000 4.000000 -4.000000
v -8.000000 0.000000 4.000000
v -8.000000 0.000000 -0.000000
v -8.000000 -0.000000 -4.000000
v -8.000000 -4.000000 4.000001
v -8.000000 -4.000000 0.000000
v -8.000000 -4.000000 -4.000000
v 4.000000 -4.000000 -8.000000
v 0.000000 -4.000000 -8.000000
v -4.000000 -4.000000 -8.000000
v 4.000000 -0.000000 -8.000000
v 0.000000 -0.000000 -8.000000
v -4.000000 -0.000000 -8.000000
v 4.000000 4.000000 -8.000000
v 0.000000 4.000000 -8.000000
v -4.000000 4.000000 -8.000000
v -4.000000 8.000000 -4.000000
v -4.000000 8.000000 -0.000000
v -4.000000 8.000000 4.000000
v 0.000000 8.000000 -4.000000
v 0.000000 8.000000 -0.000000
v 0.000000 8.000000 4.000000
v 4.000000 8.000000 -4.000000
v 4.000000 8.000000 -0.000000
v 4.000000 8.000000 4.000000
v -4.000000 -8.000000 -4.000000
v 0.000000 -8.000000 -4.000000
v 4.000000 -8.000000 -4.000000
v -4.000000 -8.000000 0.000000
v 0.000000 -8.000000 0.000000
v 4.000000 -8.000000 0.000000
v -4.000000 -8.000000 4.000000
v 0.000000 -8.000000 4.000000
v 4.000000 -8.000000 4.000000
vn -0.0000 1.0000 -0.0000
vn -0.0000 -1.0000 -0.0000
vn -0.0000 -0.0000 1.0000
vn 1.0000 -0.0000 -0.0000
vn -1.0000 -0.0000 -0.0000
vn -0.0000 -0.0000 -1.0000
vt 0.333008 0.374756
vt 0.249837 0.499512
vt 0.249837 0.374756
vt 0.249837 0.500488
vt 0.333008 0.625244
vt 0.249837 0.625244
vt 0.750163 0.499512
vt 0.666992 0.374756
vt 0.750163 0.374756
vt 0.583171 0.500488
vt 0.666341 0.625244
vt 0.583171 0.625244
vt 0.583171 0.000488
vt 0.666341 0.125244
vt 0.583171 0.125244
vt 0.999674 0.874756
vt 0.916504 0.999512
vt 0.916504 0.874756
vt 0.750163 0.874756
vt 0.666992 0.999512
vt 0.666992 0.874756
vt 0.833333 0.874756
vt 0.750163 0.999512
vt 0.833333 0.999512
vt 0.750163 0.500488
vt 0.666992 0.625244
vt 0.666992 0.500488
vt 0.750163 0.625244
vt 0.666992 0.750000
vt 0.750163 0.750000
vt 0.833333 0.500488
vt 0.833333 0.625244
vt 0.833333 0.750000
vt 0.916504 0.500488
vt 0.916504 0.625244
vt 0.916504 0.750000
vt 0.999674 0.500488
vt 0.999674 0.625244
vt 0.999674 0.750000
vt 0.583171 0.374756
vt 0.666341 0.499512
vt 0.583171 0.499512
vt 0.583171 0.250000
vt 0.666341 0.374756
vt 0.666341 0.250000
vt 0.333659 0.374756
vt 0.416829 0.499512
vt 0.333659 0.499512
vt 0.416829 0.374756
vt 0.500000 0.499512
vt 0.500000 0.374756
vt 0.333659 0.250000
vt 0.416829 0.250000
vt 0.333659 0.125244
vt 0.416829 0.125244
vt 0.500000 0.250000
vt 0.500000 0.125244
vt 0.333659 0.000488
vt 0.416829 0.000488
vt 0.500000 0.000488
vt 0.583171 0.874756
vt 0.666341 0.999512
vt 0.583171 0.999512
vt 0.583171 0.750000
vt 0.666341 0.874756
vt 0.666341 0.750000
vt 0.333659 0.874756
vt 0.416829 0.999512
vt 0.333659 0.999512
vt 0.500000 0.874756
vt 0.500000 0.999512
vt 0.333659 0.750000
vt 0.416829 0.874756
vt 0.416829 0.750000
vt 0.500000 0.750000
vt 0.333659 0.625244
vt 0.500000 0.625244
vt 0.333659 0.500488
vt 0.416829 0.625244
vt 0.416829 0.500488
vt 0.500000 0.500488
vt 0.750163 0.125244
vt 0.666992 0.000488
vt 0.750163 0.000488
vt 0.750163 0.250000
vt 0.666992 0.125244
vt 0.666992 0.250000
vt 0.999674 0.125244
vt 0.916504 0.000488
vt 0.999674 0.000488
vt 0.916504 0.125244
vt 0.833333 0.000488
vt 0.833333 0.125244
vt 0.999674 0.250000
vt 0.916504 0.250000
vt 0.833333 0.250000
vt 0.999674 0.374756
vt 0.916504 0.374756
vt 0.833333 0.374756
vt 0.999674 0.499512
vt 0.833333 0.499512
vt 0.249837 0.874756
vt 0.333008 0.999512
vt 0.249837 0.999512
vt 0.249837 0.750000
vt 0.333008 0.874756
vt 0.333008 0.750000
vt 0.000326 0.874756
vt 0.083496 0.999512
vt 0.000326 0.999512
vt 0.083496 0.874756
vt 0.166667 0.999512
vt 0.166667 0.874756
vt 0.000326 0.750000
vt 0.083496 0.750000
vt 0.166667 0.750000
vt 0.000326 0.625244
vt 0.083496 0.625244
vt 0.166667 0.625244
vt 0.000326 0.500488
vt 0.083496 0.500488
vt 0.166667 0.500488
vt 0.083496 0.374756
vt 0.000326 0.499512
vt 0.000326 0.374756
vt 0.166667 0.374756
vt 0.083496 0.499512
vt 0.166667 0.499512
vt 0.083496 0.000488
vt 0.000326 0.125244
vt 0.000326 0.000488
vt 0.083496 0.125244
vt 0.000326 0.250000
vt 0.083496 0.250000
vt 0.166667 0.000488
vt 0.166667 0.125244
vt 0.166667 0.250000
vt 0.249837 0.000488
vt 0.249837 0.125244
vt 0.249837 0.250000
vt 0.333008 0.000488
vt 0.333008 0.125244
vt 0.333008 0.250000
vt 0.333008 0.499512
vt 0.333008 0.500488
vt 0.666992 0.499512
vt 0.666341 0.500488
vt 0.666341 0.000488
vt 0.999674 0.999512
vt 0.916504 0.499512
s 0
f 91/1/1 72/2/1 150/3/1
f 76/4/2 75/5/2 141/6/2
f 45/7/3 67/8/3 132/9/3
f 57/10/4 63/11/4 123/12/4
f 39/13/5 30/14/5 114/15/5
f 96/16/6 79/17/6 105/18/6
f 99/19/6 2/20/6 58/21/6
f 102/22/6 81/23/6 99/19/6
f 105/18/6 80/24/6 102/22/6
f 82/25/6 60/26/6 6/27/6
f 97/28/6 59/29/6 60/26/6
f 98/30/6 58/21/6 59/29/6
f 83/31/6 97/28/6 82/25/6
f 100/32/6 98/30/6 97/28/6
f 101/33/6 99/19/6 98/30/6
f 84/34/6 100/32/6 83/31/6
f 103/35/6 101/33/6 100/32/6
f 104/36/6 102/22/6 101/33/6
f 1/37/6 103/35/6 84/34/6
f 94/38/6 104/36/6 103/35/6
f 95/39/6 105/18/6 104/36/6
f 108/40/5 23/41/5 49/42/5
f 111/43/5 28/44/5 108/40/5
f 114/15/5 29/45/5 111/43/5
f 90/46/5 51/47/5 17/48/5
f 106/49/5 50/50/5 51/47/5
f 107/51/5 49/42/5 50/50/5
f 89/52/5 106/49/5 90/46/5
f 109/53/5 107/51/5 106/49/5
f 107/51/5 111/43/5 108/40/5
f 88/54/5 109/53/5 89/52/5
f 112/55/5 110/56/5 109/53/5
f 113/57/5 111/43/5 110/56/5
f 18/58/5 112/55/5 88/54/5
f 37/59/5 113/57/5 112/55/5
f 38/60/5 114/15/5 113/57/5
f 117/61/4 20/62/4 40/63/4
f 120/64/4 61/65/4 117/61/4
f 123/12/4 62/66/4 120/64/4
f 33/67/4 42/68/4 22/69/4
f 42/68/4 116/70/4 41/71/4
f 41/71/4 117/61/4 40/63/4
f 32/72/4 115/73/4 33/67/4
f 118/74/4 116/70/4 115/73/4
f 119/75/4 117/61/4 116/70/4
f 31/76/4 118/74/4 32/72/4
f 118/74/4 122/77/4 119/75/4
f 119/75/4 123/12/4 120/64/4
f 24/78/4 121/79/4 31/76/4
f 55/80/4 122/77/4 121/79/4
f 56/81/4 123/12/4 122/77/4
f 126/82/3 4/83/3 25/84/3
f 129/85/3 69/86/3 126/82/3
f 132/9/3 68/87/3 129/85/3
f 85/88/3 27/89/3 7/90/3
f 124/91/3 26/92/3 27/89/3
f 125/93/3 25/84/3 26/92/3
f 86/94/3 124/91/3 85/88/3
f 127/95/3 125/93/3 124/91/3
f 128/96/3 126/82/3 125/93/3
f 87/97/3 127/95/3 86/94/3
f 130/98/3 128/96/3 127/95/3
f 131/99/3 129/85/3 128/96/3
f 8/100/3 130/98/3 87/97/3
f 130/98/3 44/101/3 131/99/3
f 44/101/3 132/9/3 131/99/3
f 135/102/2 14/103/2 54/104/2
f 138/105/2 73/106/2 135/102/2
f 141/6/2 74/107/2 138/105/2
f 48/108/2 52/109/2 12/110/2
f 133/111/2 53/112/2 52/109/2
f 134/113/2 54/104/2 53/112/2
f 47/114/2 133/111/2 48/108/2
f 136/115/2 134/113/2 133/111/2
f 137/116/2 135/102/2 134/113/2
f 46/117/2 136/115/2 47/114/2
f 139/118/2 137/116/2 136/115/2
f 140/119/2 138/105/2 137/116/2
f 9/120/2 139/118/2 46/117/2
f 78/121/2 140/119/2 139/118/2
f 77/122/2 141/6/2 140/119/2
f 144/123/1 10/124/1 66/125/1
f 147/126/1 70/127/1 144/123/1
f 150/3/1 71/128/1 147/126/1
f 36/129/1 64/130/1 13/131/1
f 142/132/1 65/133/1 64/130/1
f 143/134/1 66/125/1 65/133/1
f 35/135/1 142/132/1 36/129/1
f 145/136/1 143/134/1 142/132/1
f 146/137/1 144/123/1 143/134/1
f 34/138/1 145/136/1 35/135/1
f 148/139/1 146/137/1 145/136/1
f 149/140/1 147/126/1 146/137/1
f 16/141/1 148/139/1 34/138/1
f 93/142/1 149/140/1 148/139/1
f 92/143/1 150/3/1 149/140/1
f 91/1/1 11/144/1 72/2/1
f 76/4/2 15/145/2 75/5/2
f 45/7/3 5/146/3 67/8/3
f 57/10/4 21/147/4 63/11/4
f 39/13/5 19/148/5 30/14/5
f 96/16/6 3/149/6 79/17/6
f 99/19/6 81/23/6 2/20/6
f 102/22/6 80/24/6 81/23/6
f 105/18/6 79/17/6 80/24/6
f 82/25/6 97/28/6 60/26/6
f 97/28/6 98/30/6 59/29/6
f 98/30/6 99/19/6 58/21/6
f 83/31/6 100/32/6 97/28/6
f 100/32/6 101/33/6 98/30/6
f 101/33/6 102/22/6 99/19/6
f 84/34/6 103/35/6 100/32/6
f 103/35/6 104/36/6 101/33/6
f 104/36/6 105/18/6 102/22/6
f 1/37/6 94/38/6 103/35/6
f 94/38/6 95/39/6 104/36/6
f 95/39/6 96/16/6 105/18/6
f 108/40/5 28/44/5 23/41/5
f 111/43/5 29/45/5 28/44/5
f 114/15/5 30/14/5 29/45/5
f 90/46/5 106/49/5 51/47/5
f 106/49/5 107/51/5 50/50/5
f 107/51/5 108/40/5 49/42/5
f 89/52/5 109/53/5 106/49/5
f 109/53/5 110/56/5 107/51/5
f 107/51/5 110/56/5 111/43/5
f 88/54/5 112/55/5 109/53/5
f 112/55/5 113/57/5 110/56/5
f 113/57/5 114/15/5 111/43/5
f 18/58/5 37/59/5 112/55/5
f 37/59/5 38/60/5 113/57/5
f 38/60/5 39/13/5 114/15/5
f 117/61/4 61/65/4 20/62/4
f 120/64/4 62/66/4 61/65/4
f 123/12/4 63/11/4 62/66/4
f 33/67/4 115/73/4 42/68/4
f 42/68/4 115/73/4 116/70/4
f 41/71/4 116/70/4 117/61/4
f 32/72/4 118/74/4 115/73/4
f 118/74/4 119/75/4 116/70/4
f 119/75/4 120/64/4 117/61/4
f 31/76/4 121/79/4 118/74/4
f 118/74/4 121/79/4 122/77/4
f 119/75/4 122/77/4 123/12/4
f 24/78/4 55/80/4 121/79/4
f 55/80/4 56/81/4 122/77/4
f 56/81/4 57/10/4 123/12/4
f 126/82/3 69/86/3 4/83/3
f 129/85/3 68/87/3 69/86/3
f 132/9/3 67/8/3 68/87/3
f 85/88/3 124/91/3 27/89/3
f 124/91/3 125/93/3 26/92/3
f 125/93/3 126/82/3 25/84/3
f 86/94/3 127/95/3 124/91/3
f 127/95/3 128/96/3 125/93/3
f 128/96/3 129/85/3 126/82/3
f 87/97/3 130/98/3 127/95/3
f 130/98/3 131/99/3 128/96/3
f 131/99/3 132/9/3 129/85/3
f 8/100/3 43/150/3 130/98/3
f 130/98/3 43/150/3 44/101/3
f 44/101/3 45/7/3 132/9/3
f 135/102/2 73/106/2 14/103/2
f 138/105/2 74/107/2 73/106/2
f 141/6/2 75/5/2 74/107/2
f 48/108/2 133/111/2 52/109/2
f 133/111/2 134/113/2 53/112/2
f 134/113/2 135/102/2 54/104/2
f 47/114/2 136/115/2 133/111/2
f 136/115/2 137/116/2 134/113/2
f 137/116/2 138/105/2 135/102/2
f 46/117/2 139/118/2 136/115/2
f 139/118/2 140/119/2 137/116/2
f 140/119/2 141/6/2 138/105/2
f 9/120/2 78/121/2 139/118/2
f 78/121/2 77/122/2 140/119/2
f 77/122/2 76/4/2 141/6/2
f 144/123/1 70/127/1 10/124/1
f 147/126/1 71/128/1 70/127/1
f 150/3/1 72/2/1 71/128/1
f 36/129/1 142/132/1 64/130/1
f 142/132/1 143/134/1 65/133/1
f 143/134/1 144/123/1 66/125/1
f 35/135/1 145/136/1 142/132/1
f 145/136/1 146/137/1 143/134/1
f 146/137/1 147/126/1 144/123/1
f 34/138/1 148/139/1 145/136/1
f 148/139/1 149/140/1 146/137/1
f 149/140/1 150/3/1 147/126/1
f 16/141/1 93/142/1 148/139/1
f 93/142/1 92/143/1 149/140/1
f 92/143/1 91/1/1 150/3/1
