# Blender 4.0.2
# www.blender.org
o Cube
v 1.000000 0.000000 0.000000 1.0000 0.0000 0.0000
v 1.000000 -1.000000 0.000000 1.0000 0.0000 1.0000
v 1.000000 0.000000 1.000000 1.0000 1.0000 0.0000
v 1.000000 -1.000000 1.000000 1.0000 1.0000 1.0000
v 0.000000 0.000000 0.000000 0.0000 0.0000 0.0000
v 0.000000 -1.000000 0.000000 0.0000 0.0000 1.0000
v 0.000000 0.000000 1.000000 0.0000 1.0000 0.0000
v 0.000000 -1.000000 1.000000 0.0000 1.0000 1.0000
v 1.000000 0.000000 0.000000 1.0000 0.0000 0.0000
v 1.000000 -1.000000 0.000000 1.0000 0.0000 1.0000
v 1.000000 0.000000 1.000000 1.0000 1.0000 0.0000
v 1.000000 -1.000000 1.000000 1.0000 1.0000 1.0000
v 0.000000 0.000000 0.000000 0.0000 0.0000 0.0000
v 0.000000 -1.000000 0.000000 0.0000 0.0000 1.0000
v 0.000000 0.000000 1.000000 0.0000 1.0000 0.0000
v 0.000000 -1.000000 1.000000 0.0000 1.0000 1.0000
v 1.000000 0.000000 0.000000 1.0000 0.0000 0.0000
v 1.000000 -1.000000 0.000000 1.0000 0.0000 1.0000
v 1.000000 0.000000 1.000000 1.0000 1.0000 0.0000
v 1.000000 -1.000000 1.000000 1.0000 1.0000 1.0000
v 0.000000 0.000000 0.000000 0.0000 0.0000 0.0000
v 0.000000 -1.000000 0.000000 0.0000 0.0000 1.0000
v 0.000000 0.000000 1.000000 0.0000 1.0000 0.0000
v 0.000000 -1.000000 1.000000 0.0000 1.0000 1.0000
vn 1.0000 -0.0000 -0.0000
vn -0.0000 -0.0000 1.0000
vn -1.0000 -0.0000 -0.0000
vn -0.0000 -0.0000 -1.0000
vn -0.0000 1.0000 -0.0000
vn -0.0000 -1.0000 -0.0000
vt 0.625000 0.500000
vt 0.375000 0.750000
vt 0.375000 0.500000
vt 0.625000 0.750000
vt 0.375000 1.000000
vt 0.625000 0.000000
vt 0.375000 0.250000
vt 0.375000 0.000000
vt 0.625000 0.250000
vt 0.875000 0.500000
vt 0.125000 0.750000
vt 0.125000 0.500000
vt 0.625000 1.000000
vt 0.875000 0.750000
s 0
f 17/1/1 20/2/1 18/3/1
f 3/4/2 8/5/2 4/2/2
f 23/6/3 22/7/3 24/8/3
f 5/9/4 2/3/4 6/7/4
f 13/10/5 11/4/5 9/1/5
f 10/3/6 16/11/6 14/12/6
f 17/1/1 19/4/1 20/2/1
f 3/4/2 7/13/2 8/5/2
f 23/6/3 21/9/3 22/7/3
f 5/9/4 1/1/4 2/3/4
f 13/10/5 15/14/5 11/4/5
f 10/3/6 12/2/6 16/11/6
