# Blender 4.0.2
# www.blender.org
o Cube
v -8.000000 -8.000000 8.000000
v -8.000000 8.000000 8.000000
v -8.000000 -8.000000 -8.000000
v -8.000000 8.000000 -8.000000
v 8.000000 -8.000000 8.000000
v 8.000000 8.000000 8.000000
v 8.000000 -8.000000 -8.000000
v 8.000000 8.000000 -8.000000
v -8.000000 -8.000000 8.000000
v -8.000000 8.000000 8.000000
v -8.000000 -8.000000 -8.000000
v -8.000000 8.000000 -8.000000
v 8.000000 -8.000000 8.000000
v 8.000000 8.000000 8.000000
v 8.000000 -8.000000 -8.000000
v 8.000000 8.000000 -8.000000
v -8.000000 -8.000000 8.000000
v -8.000000 8.000000 8.000000
v -8.000000 -8.000000 -8.000000
v -8.000000 8.000000 -8.000000
v 8.000000 -8.000000 8.000000
v 8.000000 8.000000 8.000000
v 8.000000 -8.000000 -8.000000
v 8.000000 8.000000 -8.000000
vn 1.0000 -0.0000 -0.0000
vn -1.0000 -0.0000 -0.0000
vn -0.0000 -0.0000 -1.0000
vn -0.0000 -0.0000 1.0000
vn -0.0000 1.0000 -0.0000
vn -0.0000 -1.0000 -0.0000
vt 1.000000 0.000000
vt 0.000000 1.000000
vt 0.000000 0.000000
vt 1.000000 1.000000
s 0
f 3/1/1 2/2/1 1/3/1
f 5/1/2 8/2/2 7/3/2
f 17/1/3 22/2/3 21/3/3
f 23/1/4 20/2/4 19/3/4
f 9/1/5 15/2/5 11/3/5
f 14/1/6 12/2/6 16/3/6
f 3/1/1 4/4/1 2/2/1
f 5/1/2 6/4/2 8/2/2
f 17/1/3 18/4/3 22/2/3
f 23/1/4 24/4/4 20/2/4
f 9/1/5 13/4/5 15/2/5
f 14/1/6 10/4/6 12/2/6
